<?xml version="1.0" encoding="UTF-8"?><svg id="Layer_1" xmlns="http://www.w3.org/2000/svg" viewBox="0 0 397.74 251.29"><defs><style>.cls-1{fill:#001644;}.cls-2{fill:#da1a32;}.cls-3{fill:#fff;}.cls-4{fill:#c69e66;}</style></defs><path class="cls-1" d="M74.85,232.08h10.41c3.16,0,8.36,0,8.36,5.74s-5.19,5.71-8.36,5.71h-6.76v7.25h-3.65v-18.7ZM86.06,240.39c2.09,0,3.91-.18,3.91-2.6s-1.82-2.57-3.91-2.57h-7.56v5.17h7.56Z"/><path class="cls-1" d="M109.09,232.08h16.76v3.14h-13.11v4.34h11.29v3.14h-11.29v4.94h13.42v3.13h-17.07v-18.69Z"/><path class="cls-1" d="M141.92,232.08h3.65v15.45h13.55v3.24h-17.2v-18.69Z"/><path class="cls-1" d="M174.98,232.08h3.65v18.69h-3.65v-18.69Z"/><path class="cls-1" d="M215.77,244.12c-.36,2.08-1.85,7.12-10.44,7.12-5.27.55-9.99-3.28-10.53-8.56-.05-.52-.06-1.04-.03-1.55,0-5.45,3.42-9.51,10.85-9.51,8.36,0,9.59,5.43,9.87,6.43h-3.65c-1.1-2.27-3.51-3.59-6.01-3.29-3.68-.35-6.95,2.34-7.3,6.02-.35,3.68,2.34,6.95,6.02,7.3.36.03.71.04,1.07.02,2.82.31,5.49-1.33,6.5-3.98h3.65Z"/><path class="cls-1" d="M239,232.08h4.17l9.07,18.69h-3.86l-1.95-4.29h-10.77l-1.98,4.29h-3.88l9.21-18.69ZM244.99,243.34l-3.91-8.33-3.9,8.33h7.81Z"/><path class="cls-1" d="M267.48,232.08h3.86l12.5,13.5v-13.5h3.49v18.69h-3.34l-13.01-13.99v13.99h-3.49v-18.69Z"/><path class="cls-1" d="M319.13,237.77c-.59-1.68-2.11-3.12-6.56-3.12-2.47,0-4.96.62-4.96,2.34,0,.8.46,1.64,4.19,2.11l4.42.67c4.19.64,6.66,2.27,6.66,5.4,0,4.43-4.22,6.07-9.21,6.07-8.02,0-9.98-3.96-10.41-5.38l3.52-1.1c.67,1.36,2.06,3.34,7,3.34,2.98,0,5.45-.98,5.45-2.59,0-1.21-1.39-2.01-4.06-2.34l-4.47-.62c-4.32-.59-6.74-2.47-6.74-5.32,0-5.6,7.28-5.6,8.72-5.6,8.05,0,9.44,3.73,9.9,5.01l-3.44,1.13Z"/><path class="cls-1" d="M186.51,194.47v-11.07c.03-1.39-.25-2.77-.82-4.04-.52-1.11-1.29-2.08-2.25-2.85-1-.78-2.15-1.34-3.37-1.67-2.74-.73-5.63-.73-8.37,0-1.23.33-2.39.89-3.4,1.67-.98.75-1.76,1.73-2.28,2.85-.57,1.27-.85,2.65-.82,4.04v11.09c-1.29.19-2.19,1.4-1.99,2.69.15,1.03.96,1.84,1.99,1.99v12.41c-.03,1.39.25,2.77.82,4.04.52,1.12,1.3,2.11,2.28,2.87,1.01.79,2.16,1.37,3.4,1.7,2.74.73,5.63.73,8.37,0,1.23-.33,2.38-.91,3.37-1.7.96-.77,1.73-1.76,2.25-2.87.57-1.27.85-2.65.82-4.04v-12.4c1.3-.13,2.25-1.3,2.12-2.6-.11-1.12-1-2-2.12-2.12M180.57,211.34c.02.7-.12,1.4-.42,2.03-.26.52-.63.98-1.09,1.33-.44.35-.95.6-1.49.76-.54.16-1.1.25-1.67.25-.58,0-1.15-.08-1.7-.25-.55-.15-1.07-.41-1.52-.76-.46-.35-.84-.81-1.09-1.33-.3-.63-.45-1.33-.43-2.03v-27.69c-.02-.7.12-1.4.43-2.04.26-.52.63-.97,1.09-1.33.45-.35.97-.61,1.52-.76.55-.16,1.12-.24,1.7-.24.57,0,1.13.08,1.67.24.54.16,1.04.42,1.49.76.45.36.83.81,1.09,1.33.3.64.45,1.34.42,2.04v27.69Z"/><path class="cls-1" d="M73.69,204.66c0,.12-.03.14-.09.07-.06-.09-.11-.17-.15-.25-.16-.53-.49-1.58-.98-3.16-.48-1.58-1.04-3.41-1.67-5.5-.63-2.08-1.3-4.27-2-6.56-.71-2.29-1.37-4.39-1.97-6.31-.61-1.93-1.12-3.52-1.52-4.82-.4-1.3-.6-1.99-.6-2.07-.1-.36-.29-.68-.55-.94-.31-.24-.7-.36-1.09-.34h-6.86v2.01c-.02.57.08,1.14.3,1.67.17.38.42.73.73,1.01.3.29.65.52,1.03.67v14.37c-1.29.24-2.14,1.48-1.9,2.77.18.97.94,1.72,1.9,1.9v21.08h5.34v-28.95c0-.24.02-.34.06-.3.05.05.1.11.13.18,0,.04.2.7.6,1.97.41,1.28.91,2.86,1.52,4.77.61,1.9,1.27,3.96,1.97,6.19.71,2.23,1.37,4.33,2,6.29.63,1.95,1.16,3.65,1.61,5.04.45,1.4.71,2.19.79,2.4.16.58.38,1.15.64,1.7.2.43.65.69,1.12.67h3.52c.42.03.83-.15,1.09-.48.24-.31.37-.7.37-1.09v-19.52c1.26-.36,1.99-1.67,1.63-2.92-.22-.79-.84-1.41-1.63-1.63v-14c.01-.27.08-.54.21-.78.11-.18.24-.34.4-.49.37-.3.7-.64.97-1.03.34-.5.51-1.1.48-1.71v-1.76l-7.41.06v29.82Z"/><path class="cls-1" d="M309.1,204.66c0,.12-.03.14-.09.07-.06-.09-.11-.17-.15-.25-.17-.53-.49-1.58-.97-3.16-.48-1.58-1.04-3.41-1.68-5.5-.63-2.08-1.29-4.27-2-6.56-.7-2.29-1.36-4.39-1.97-6.31-.61-1.93-1.12-3.52-1.52-4.82-.4-1.3-.61-1.99-.61-2.07-.09-.36-.28-.68-.54-.94-.31-.24-.7-.36-1.1-.34h-6.86v2.01c-.02.57.08,1.14.3,1.67.17.38.41.73.72,1.01.3.29.65.52,1.04.67v14.37c-1.29.24-2.14,1.48-1.9,2.77.18.97.94,1.72,1.9,1.9v21.08h5.34v-28.95c0-.24.02-.34.06-.3.05.05.09.11.12.18,0,.04.21.7.61,1.97.4,1.28.91,2.86,1.52,4.77.61,1.9,1.26,3.96,1.98,6.19.71,2.23,1.37,4.33,2,6.29.63,1.95,1.16,3.65,1.61,5.04.45,1.4.71,2.19.79,2.4.16.58.38,1.15.64,1.7.2.43.65.7,1.12.67h3.52c.42.03.83-.15,1.09-.48.23-.31.36-.7.36-1.09v-19.53c1.26-.35,1.99-1.66,1.64-2.91-.22-.79-.84-1.41-1.64-1.64v-14c.01-.27.08-.54.21-.78.11-.18.24-.34.4-.49.37-.3.7-.64.97-1.03.34-.5.51-1.1.48-1.71v-1.76l-7.4.06v29.82Z"/><path class="cls-1" d="M337.52,197.92c-.96-.86-1.99-1.63-3.08-2.32.05-.2.08-.4.09-.6,0-1.31-1.07-2.38-2.38-2.38-.55,0-1.09.2-1.51.55-.19-.13-.4-.26-.59-.39-1.01-.65-1.97-1.4-2.85-2.22-.7-.57-1.12-1.41-1.16-2.3v-6.01c0-.43.15-.85.43-1.18.3-.36.67-.66,1.09-.88.44-.24.91-.42,1.4-.54.46-.12.92-.18,1.4-.19.46,0,.92.06,1.37.15.48.1.95.26,1.39.49.42.21.78.51,1.07.88.28.36.43.81.42,1.27v2.25c-.02.92.36,1.81,1.04,2.43.69.64,1.6.99,2.54.97h2.73v-4.5c.03-1.39-.24-2.76-.78-4.04-.5-1.11-1.26-2.09-2.22-2.85-1-.77-2.13-1.34-3.34-1.7-1.35-.39-2.75-.59-4.16-.57-1.39-.01-2.78.16-4.13.52-1.19.32-2.31.87-3.28,1.64-.95.77-1.69,1.74-2.18,2.86-.56,1.31-.82,2.73-.78,4.15v4.32c-.05,1.52.34,3.03,1.12,4.34.76,1.2,1.71,2.25,2.82,3.13,1.14.89,2.34,1.69,3.59,2.4-.14.3-.22.64-.22.97,0,1.31,1.05,2.38,2.37,2.38.71,0,1.38-.31,1.83-.86.98.67,1.85,1.49,2.6,2.41.76.98,1.16,2.2,1.12,3.44v6.44c0,.51-.16,1.01-.46,1.43-.32.44-.72.81-1.18,1.09-.49.3-1.02.55-1.58.73-.53.18-1.08.27-1.64.27-.55,0-1.11-.09-1.64-.25-.55-.15-1.07-.37-1.55-.67-.44-.27-.84-.62-1.15-1.03-.3-.4-.46-.89-.45-1.4v-2.61c.05-.8-.25-1.59-.82-2.16-.7-.55-1.58-.82-2.46-.76h-2.92v4.56c-.03,1.4.27,2.78.88,4.04.56,1.12,1.37,2.1,2.37,2.85,1.05.78,2.23,1.34,3.49,1.68,2.79.72,5.71.72,8.5,0,1.27-.33,2.46-.9,3.52-1.68,1.02-.75,1.85-1.73,2.43-2.85.63-1.25.94-2.64.91-4.04v-5.96c.03-1.51-.37-3-1.15-4.3-.78-1.27-1.74-2.41-2.86-3.4"/><path class="cls-1" d="M140.9,197.49c-.24,2.1-.48,4.17-.73,6.19-.25,2.03-.47,3.83-.67,5.41-.21,1.58-.37,2.85-.48,3.83-.03.49-.11.98-.24,1.46-.49-2.95-.92-5.6-1.31-7.95-.38-2.35-.81-4.97-1.28-7.86-.46-2.89-.94-5.75-1.42-8.56-.48-2.82-.94-5.42-1.37-7.83-.43-2.41-.8-4.32-1.12-5.74-.09-.45-.46-.8-1.13-1.09-.64-.28-1.33-.42-2.03-.42-.65,0-1.3.12-1.91.32-.57.13-1.03.56-1.18,1.12-.33,1.33-.7,3.21-1.12,5.62-.42,2.41-.88,5.02-1.36,7.83-.48,2.82-.96,5.68-1.43,8.59-.46,2.92-.89,5.56-1.28,7.92-.38,2.37-.82,5.06-1.31,8.05-.14-.47-.23-.96-.27-1.46-.14-.98-.3-2.25-.49-3.83-.18-1.58-.39-3.37-.64-5.41-.24-2.02-.49-4.09-.73-6.19-.56-4.94-2.53-22.72-2.53-22.72h-7.42v1.83c-.02.6.13,1.18.43,1.7.23.39.54.72.91.97.2.16.39.34.55.55.17.23.3.5.36.78.59,5.06,1.12,9.73,1.63,14.02-1.21.5-1.79,1.88-1.3,3.1.31.77,1.01,1.32,1.83,1.45l.03.27c.28,2.39.55,4.71.82,6.98.26,2.26.5,4.3.72,6.11.23,1.8.41,3.27.55,4.39.14,1.14.21,1.74.21,1.82.05.34.18.67.4.94.22.3.57.47.94.46h6.86c.38.02.75-.11,1.03-.36.3-.34.52-.73.67-1.15l5.17-29.58,5.04,29.58c.14.43.37.82.67,1.15.28.26.66.39,1.03.36h6.8c.37.02.72-.16.94-.46.21-.27.35-.6.39-.94,0-.08.07-.69.21-1.82.14-1.12.32-2.59.55-4.39.21-1.81.46-3.84.73-6.11.26-2.27.54-4.6.82-6.98l.03-.27c1.3-.21,2.18-1.43,1.96-2.73-.13-.81-.67-1.5-1.43-1.81.49-4.29,1.03-8.95,1.63-14.02.06-.28.19-.55.37-.78.15-.21.34-.39.54-.55.88-.6,1.38-1.61,1.33-2.67v-1.83l-7.39.02s-2,17.74-2.56,22.69"/><path class="cls-1" d="M286.12,196.83c0-1.17-.85-2.16-2-2.34-.28-1.6-.57-3.21-.85-4.76-.39-2.19-.73-4.16-1.03-5.92-.3-1.76-.56-3.21-.76-4.34-.2-1.13-.3-1.78-.3-1.94-.08-.73-.43-1.41-.97-1.91-.61-.57-1.42-.87-2.25-.83h-8.14v1.4c0,1.74.51,2.81,1.52,3.22.2.08.33.29.3.51,0,.29-.02.59-.06.88,0,.04-.09.55-.27,1.52-.18.98-.43,2.25-.73,3.83-.3,1.58-.63,3.37-1,5.37-.18.96-.36,1.95-.54,2.94-1.31.02-2.36,1.1-2.34,2.41.02.95.59,1.8,1.47,2.16-1.15,6.16-3.9,21.18-3.9,21.18h5.78s1.68-10.24,1.72-10.44c.08-.81.44-1.22,1.09-1.22h6.92c.32-.01.64.07.91.23.29.25.46.6.48.98,0,.2,1.36,10.44,1.36,10.44l6.12.05s-2.51-14.27-3.76-21.35c.75-.42,1.22-1.2,1.22-2.06M279.96,203.21c-.16.2-.41.3-.67.29h-5.71c-.23,0-.46-.09-.61-.27-.17-.19-.23-.45-.18-.69,0-.04.05-.39.15-1.03.1-.64.23-1.47.4-2.49.16-1.01.34-2.16.54-3.43.2-1.28.43-2.58.67-3.92l1.82-10.56h.13l1.82,10.56c.24,1.34.46,2.64.67,3.92.2,1.27.38,2.42.54,3.43.16,1.01.3,1.84.42,2.49.12.65.18,1,.18,1.03.04.24-.02.49-.18.67"/><path class="cls-1" d="M213.05,215.53c-.2-.12-.37-.23-.51-.33s-.21-.35-.21-.76v-10.38c.02-1.38-.21-2.76-.67-4.06-.39-1.14-1.1-2.13-2.06-2.86-.45-.44-.48-.85-.12-1.21.87-.72,1.58-1.62,2.06-2.64.54-1.11.81-2.32.79-3.55v-4.8c.01-1.39-.17-2.77-.55-4.1-.34-1.18-.93-2.26-1.73-3.19-.83-.92-1.86-1.64-3.01-2.09-1.41-.55-2.92-.81-4.43-.77h-12.5v1.76c-.05.68.11,1.36.46,1.95.24.39.56.72.94.97.17.09.32.23.43.39.13.23.2.49.18.76v13.9c-1.28.27-2.11,1.53-1.84,2.81.19.92.91,1.65,1.84,1.84v21.04l5.95.03v-20c0-.57.27-.85.79-.85h3.76c1.08-.1,2.14.35,2.83,1.19.64.98.95,2.13.88,3.3v13.36c-.14,1.51.97,2.85,2.48,2.98.2.02.41.01.61-.01h5.04v-2.36c.06-.56-.11-1.11-.46-1.55-.28-.29-.6-.54-.94-.76M206.31,189.73c.06,1.2-.25,2.38-.88,3.4-.66.89-1.73,1.37-2.83,1.27h-3.82c-.18,0-.35-.07-.49-.18-.16-.11-.25-.29-.24-.48v-13c0-.56.32-.84.97-.84h3.58c1.09-.09,2.16.37,2.83,1.24.63,1,.94,2.18.88,3.37v5.23Z"/><path class="cls-1" d="M232.05,202.39c-.65.36-1.01,1.09-.91,1.82,0,.24.05,10.51-.09,10.73-.14.22-.38.35-.64.33h-5.35c-.26.02-.5-.13-.61-.36-.13-.27-.19-.56-.18-.85l-.06-33.39c-.02-.31.03-.62.15-.91.12-.18.27-.33.46-.43.37-.29.7-.64.97-1.03.34-.5.51-1.1.49-1.7v-1.82h-10.14v1.82c-.02.6.15,1.2.49,1.7.27.39.59.74.96,1.03.19.11.36.26.49.43.15.28.21.59.18.91v13.82c-1.29.26-2.12,1.51-1.87,2.8.19.94.92,1.68,1.87,1.87v21.04h17.24c.36-.01.71-.16.97-.42.33-.29.5-.72.48-1.15v-16.65h-2.55c-.81-.02-1.62.12-2.37.42"/><path class="cls-1" d="M103.07,174.83c-.1-.03-.2-.04-.3-.04h-.11s-19.25,0-19.25,0v1.76c-.03.65.08,1.29.34,1.88.2.42.53.76.94.97.21.13.4.29.55.49.18.24.26.54.25.85v13.76c-1.29.25-2.13,1.5-1.87,2.79.19.95.93,1.69,1.87,1.87v21.04h17.3c.15,0,.3-.03.44-.09.21-.07.41-.18.57-.33.3-.29.47-.69.45-1.1v-12.85h-2.55c-.81-.02-1.62.12-2.37.42-.65.36-1.01,1.09-.91,1.83,0,.24.06,6.65-.08,6.87-.14.22-.38.35-.64.33h-5.52c-.49,0-.73-.28-.73-.85v-14.15c0-.57.3-.85.91-.85h7.29c.6,0,.91-.28.91-.86v-3.39c.02-.28-.11-.54-.34-.7-.19-.13-.41-.2-.64-.21h-7.22c-.61,0-.91-.28-.91-.85v-12.69c0-.24.1-.47.27-.64.15-.16.36-.26.58-.27h5.81c.09.05.17.12.23.21.14.22.08,6.63.08,6.88-.1.74.26,1.46.91,1.82.75.3,1.56.45,2.37.43h2.55v-13.04c-.01-.35-.17-.68-.43-.92-.2-.2-.46-.32-.73-.37"/><path class="cls-1" d="M259.15,174.83c-.1-.03-.2-.04-.3-.04h-.11s-19.26,0-19.26,0v1.76c-.03.65.08,1.29.34,1.88.2.42.53.76.94.97.21.13.4.29.55.49.18.24.26.54.25.85v13.76c-1.29.25-2.13,1.5-1.87,2.79.19.95.93,1.69,1.87,1.87v21.04h17.3c.15,0,.3-.03.44-.09.21-.07.41-.18.57-.33.3-.28.47-.69.45-1.1v-12.85h-2.55c-.81-.02-1.62.12-2.37.42-.65.36-1.01,1.09-.91,1.83,0,.24.06,6.65-.09,6.87-.14.22-.38.34-.64.33h-5.53c-.48,0-.73-.28-.73-.85v-14.15c0-.57.3-.85.91-.85h7.29c.6,0,.91-.28.91-.86v-3.39c.02-.28-.11-.55-.34-.7-.19-.13-.41-.2-.64-.21h-7.23c-.6,0-.91-.28-.91-.85v-12.69c0-.24.1-.47.27-.64.15-.16.36-.26.58-.27h5.81c.09.05.17.12.23.21.14.22.09,6.63.09,6.88-.1.74.26,1.46.91,1.82.75.3,1.56.45,2.37.43h2.55v-13.04c-.01-.35-.16-.68-.42-.92-.2-.19-.46-.32-.73-.37"/><path class="cls-1" d="M186.51,194.47v-11.07c.03-1.39-.25-2.77-.82-4.04-.52-1.11-1.29-2.08-2.25-2.85-1-.78-2.15-1.34-3.37-1.67-2.74-.73-5.63-.73-8.37,0-1.23.33-2.39.89-3.4,1.67-.98.75-1.76,1.73-2.28,2.85-.57,1.27-.85,2.65-.82,4.04v11.09c-1.29.19-2.19,1.4-1.99,2.69.15,1.03.96,1.84,1.99,1.99v12.41c-.03,1.39.25,2.77.82,4.04.52,1.12,1.3,2.11,2.28,2.87,1.01.79,2.16,1.37,3.4,1.7,2.74.73,5.63.73,8.37,0,1.23-.33,2.38-.91,3.37-1.7.96-.77,1.73-1.76,2.25-2.87.57-1.27.85-2.65.82-4.04v-12.4c1.3-.13,2.25-1.3,2.12-2.6-.11-1.12-1-2-2.12-2.12M180.57,211.34c.02.7-.12,1.4-.42,2.03-.26.52-.63.98-1.09,1.33-.44.35-.95.6-1.49.76-.54.16-1.1.25-1.67.25-.58,0-1.15-.08-1.7-.25-.55-.15-1.07-.41-1.52-.76-.46-.35-.84-.81-1.09-1.33-.3-.63-.45-1.33-.43-2.03v-27.69c-.02-.7.12-1.4.43-2.04.26-.52.63-.97,1.09-1.33.45-.35.97-.61,1.52-.76.55-.16,1.12-.24,1.7-.24.57,0,1.13.08,1.67.24.54.16,1.04.42,1.49.76.45.36.83.81,1.09,1.33.3.64.45,1.34.42,2.04v27.69Z"/><path class="cls-1" d="M73.69,204.66c0,.12-.03.14-.09.07-.06-.09-.11-.17-.15-.25-.16-.53-.49-1.58-.98-3.16-.48-1.58-1.04-3.41-1.67-5.5-.63-2.08-1.3-4.27-2-6.56-.71-2.29-1.37-4.39-1.97-6.31-.61-1.93-1.12-3.52-1.52-4.82-.4-1.3-.6-1.99-.6-2.07-.1-.36-.29-.68-.55-.94-.31-.24-.7-.36-1.09-.34h-6.86v2.01c-.02.57.08,1.14.3,1.67.17.38.42.73.73,1.01.3.29.65.52,1.03.67v14.37c-1.29.24-2.14,1.48-1.9,2.77.18.97.94,1.72,1.9,1.9v21.08h5.34v-28.95c0-.24.02-.34.06-.3.05.05.1.11.13.18,0,.04.2.7.6,1.97.41,1.28.91,2.86,1.52,4.77.61,1.9,1.27,3.96,1.97,6.19.71,2.23,1.37,4.33,2,6.29.63,1.95,1.16,3.65,1.61,5.04.45,1.4.71,2.19.79,2.4.16.58.38,1.15.64,1.7.2.43.65.69,1.12.67h3.52c.42.03.83-.15,1.09-.48.24-.31.37-.7.37-1.09v-19.52c1.26-.36,1.99-1.67,1.63-2.92-.22-.79-.84-1.41-1.63-1.63v-14c.01-.27.08-.54.21-.78.11-.18.24-.34.4-.49.37-.3.7-.64.97-1.03.34-.5.51-1.1.48-1.71v-1.76l-7.41.06v29.82Z"/><path class="cls-1" d="M309.1,204.66c0,.12-.03.14-.09.07-.06-.09-.11-.17-.15-.25-.17-.53-.49-1.58-.97-3.16-.48-1.58-1.04-3.41-1.68-5.5-.63-2.08-1.29-4.27-2-6.56-.7-2.29-1.36-4.39-1.97-6.31-.61-1.93-1.12-3.52-1.52-4.82-.4-1.3-.61-1.99-.61-2.07-.09-.36-.28-.68-.54-.94-.31-.24-.7-.36-1.1-.34h-6.86v2.01c-.02.57.08,1.14.3,1.67.17.38.41.73.72,1.01.3.29.65.52,1.04.67v14.37c-1.29.24-2.14,1.48-1.9,2.77.18.97.94,1.72,1.9,1.9v21.08h5.34v-28.95c0-.24.02-.34.06-.3.05.05.09.11.12.18,0,.04.21.7.61,1.97.4,1.28.91,2.86,1.52,4.77.61,1.9,1.26,3.96,1.98,6.19.71,2.23,1.37,4.33,2,6.29.63,1.95,1.16,3.65,1.61,5.04.45,1.4.71,2.19.79,2.4.16.58.38,1.15.64,1.7.2.43.65.7,1.12.67h3.52c.42.03.83-.15,1.09-.48.23-.31.36-.7.36-1.09v-19.53c1.26-.35,1.99-1.66,1.64-2.91-.22-.79-.84-1.41-1.64-1.64v-14c.01-.27.08-.54.21-.78.11-.18.24-.34.4-.49.37-.3.7-.64.97-1.03.34-.5.51-1.1.48-1.71v-1.76l-7.4.06v29.82Z"/><path class="cls-1" d="M337.52,197.92c-.96-.86-1.99-1.63-3.08-2.32.05-.2.08-.4.09-.6,0-1.31-1.07-2.38-2.38-2.38-.55,0-1.09.2-1.51.55-.19-.13-.4-.26-.59-.39-1.01-.65-1.97-1.4-2.85-2.22-.7-.57-1.12-1.41-1.16-2.3v-6.01c0-.43.15-.85.43-1.18.3-.36.67-.66,1.09-.88.44-.24.91-.42,1.4-.54.46-.12.92-.18,1.4-.19.46,0,.92.06,1.37.15.48.1.95.26,1.39.49.42.21.78.51,1.07.88.28.36.43.81.42,1.27v2.25c-.02.92.36,1.81,1.04,2.43.69.64,1.6.99,2.54.97h2.73v-4.5c.03-1.39-.24-2.76-.78-4.04-.5-1.11-1.26-2.09-2.22-2.85-1-.77-2.13-1.34-3.34-1.7-1.35-.39-2.75-.59-4.16-.57-1.39-.01-2.78.16-4.13.52-1.19.32-2.31.87-3.28,1.64-.95.77-1.69,1.74-2.18,2.86-.56,1.31-.82,2.73-.78,4.15v4.32c-.05,1.52.34,3.03,1.12,4.34.76,1.2,1.71,2.25,2.82,3.13,1.14.89,2.34,1.69,3.59,2.4-.14.3-.22.64-.22.97,0,1.31,1.05,2.38,2.37,2.38.71,0,1.38-.31,1.83-.86.98.67,1.85,1.49,2.6,2.41.76.98,1.16,2.2,1.12,3.44v6.44c0,.51-.16,1.01-.46,1.43-.32.44-.72.81-1.18,1.09-.49.3-1.02.55-1.58.73-.53.18-1.08.27-1.64.27-.55,0-1.11-.09-1.64-.25-.55-.15-1.07-.37-1.55-.67-.44-.27-.84-.62-1.15-1.03-.3-.4-.46-.89-.45-1.4v-2.61c.05-.8-.25-1.59-.82-2.16-.7-.55-1.58-.82-2.46-.76h-2.92v4.56c-.03,1.4.27,2.78.88,4.04.56,1.12,1.37,2.1,2.37,2.85,1.05.78,2.23,1.34,3.49,1.68,2.79.72,5.71.72,8.5,0,1.27-.33,2.46-.9,3.52-1.68,1.02-.75,1.85-1.73,2.43-2.85.63-1.25.94-2.64.91-4.04v-5.96c.03-1.51-.37-3-1.15-4.3-.78-1.27-1.74-2.41-2.86-3.4"/><path class="cls-1" d="M140.9,197.49c-.24,2.1-.48,4.17-.73,6.19-.25,2.03-.47,3.83-.67,5.41-.21,1.58-.37,2.85-.48,3.83-.03.49-.11.98-.24,1.46-.49-2.95-.92-5.6-1.31-7.95-.38-2.35-.81-4.97-1.28-7.86-.46-2.89-.94-5.75-1.42-8.56-.48-2.82-.94-5.42-1.37-7.83-.43-2.41-.8-4.32-1.12-5.74-.09-.45-.46-.8-1.13-1.09-.64-.28-1.33-.42-2.03-.42-.65,0-1.3.12-1.91.32-.57.13-1.03.56-1.18,1.12-.33,1.33-.7,3.21-1.12,5.62-.42,2.41-.88,5.02-1.36,7.83-.48,2.82-.96,5.68-1.43,8.59-.46,2.92-.89,5.56-1.28,7.92-.38,2.37-.82,5.06-1.31,8.05-.14-.47-.23-.96-.27-1.46-.14-.98-.3-2.25-.49-3.83-.18-1.58-.39-3.37-.64-5.41-.24-2.02-.49-4.09-.73-6.19-.56-4.94-2.53-22.72-2.53-22.72h-7.42v1.83c-.02.6.13,1.18.43,1.7.23.39.54.72.91.97.2.16.39.34.55.55.17.23.3.5.36.78.59,5.06,1.12,9.73,1.63,14.02-1.21.5-1.79,1.88-1.3,3.1.31.77,1.01,1.32,1.83,1.45l.03.27c.28,2.39.55,4.71.82,6.98.26,2.26.5,4.3.72,6.11.23,1.8.41,3.27.55,4.39.14,1.14.21,1.74.21,1.82.05.34.18.67.4.94.22.3.57.47.94.46h6.86c.38.02.75-.11,1.03-.36.3-.34.52-.73.67-1.15l5.17-29.58,5.04,29.58c.14.43.37.82.67,1.15.28.26.66.39,1.03.36h6.8c.37.02.72-.16.94-.46.21-.27.35-.6.39-.94,0-.08.07-.69.21-1.82.14-1.12.32-2.59.55-4.39.21-1.81.46-3.84.73-6.11.26-2.27.54-4.6.82-6.98l.03-.27c1.3-.21,2.18-1.43,1.96-2.73-.13-.81-.67-1.5-1.43-1.81.49-4.29,1.03-8.95,1.63-14.02.06-.28.19-.55.37-.78.15-.21.34-.39.54-.55.88-.6,1.38-1.61,1.33-2.67v-1.83l-7.39.02s-2,17.74-2.56,22.69"/><path class="cls-1" d="M286.12,196.83c0-1.17-.85-2.16-2-2.34-.28-1.6-.57-3.21-.85-4.76-.39-2.19-.73-4.16-1.03-5.92-.3-1.76-.56-3.21-.76-4.34-.2-1.13-.3-1.78-.3-1.94-.08-.73-.43-1.41-.97-1.91-.61-.57-1.42-.87-2.25-.83h-8.14v1.4c0,1.74.51,2.81,1.52,3.22.2.08.33.29.3.51,0,.29-.02.59-.06.88,0,.04-.09.55-.27,1.52-.18.98-.43,2.25-.73,3.83-.3,1.58-.63,3.37-1,5.37-.18.96-.36,1.95-.54,2.94-1.31.02-2.36,1.1-2.34,2.41.02.95.59,1.8,1.47,2.16-1.15,6.16-3.9,21.18-3.9,21.18h5.78s1.68-10.24,1.72-10.44c.08-.81.44-1.22,1.09-1.22h6.92c.32-.01.64.07.91.23.29.25.46.6.48.98,0,.2,1.36,10.44,1.36,10.44l6.12.05s-2.51-14.27-3.76-21.35c.75-.42,1.22-1.2,1.22-2.06M279.96,203.21c-.16.2-.41.3-.67.29h-5.71c-.23,0-.46-.09-.61-.27-.17-.19-.23-.45-.18-.69,0-.04.05-.39.15-1.03.1-.64.23-1.47.4-2.49.16-1.01.34-2.16.54-3.43.2-1.28.43-2.58.67-3.92l1.82-10.56h.13l1.82,10.56c.24,1.34.46,2.64.67,3.92.2,1.27.38,2.42.54,3.43.16,1.01.3,1.84.42,2.49.12.65.18,1,.18,1.03.04.24-.02.49-.18.67"/><path class="cls-1" d="M213.05,215.53c-.2-.12-.37-.23-.51-.33s-.21-.35-.21-.76v-10.38c.02-1.38-.21-2.76-.67-4.06-.39-1.14-1.1-2.13-2.06-2.86-.45-.44-.48-.85-.12-1.21.87-.72,1.58-1.62,2.06-2.64.54-1.11.81-2.32.79-3.55v-4.8c.01-1.39-.17-2.77-.55-4.1-.34-1.18-.93-2.26-1.73-3.19-.83-.92-1.86-1.64-3.01-2.09-1.41-.55-2.92-.81-4.43-.77h-12.5v1.76c-.05.68.11,1.36.46,1.95.24.39.56.72.94.97.17.09.32.23.43.39.13.23.2.49.18.76v13.9c-1.28.27-2.11,1.53-1.84,2.81.19.92.91,1.65,1.84,1.84v21.04l5.95.03v-20c0-.57.27-.85.79-.85h3.76c1.08-.1,2.14.35,2.83,1.19.64.98.95,2.13.88,3.3v13.36c-.14,1.51.97,2.85,2.48,2.98.2.02.41.01.61-.01h5.04v-2.36c.06-.56-.11-1.11-.46-1.55-.28-.29-.6-.54-.94-.76M206.31,189.73c.06,1.2-.25,2.38-.88,3.4-.66.89-1.73,1.37-2.83,1.27h-3.82c-.18,0-.35-.07-.49-.18-.16-.11-.25-.29-.24-.48v-13c0-.56.32-.84.97-.84h3.58c1.09-.09,2.16.37,2.83,1.24.63,1,.94,2.18.88,3.37v5.23Z"/><path class="cls-1" d="M232.05,202.39c-.65.36-1.01,1.09-.91,1.82,0,.24.05,10.51-.09,10.73-.14.22-.38.35-.64.33h-5.35c-.26.02-.5-.13-.61-.36-.13-.27-.19-.56-.18-.85l-.06-33.39c-.02-.31.03-.62.15-.91.12-.18.27-.33.46-.43.37-.29.7-.64.97-1.03.34-.5.51-1.1.49-1.7v-1.82h-10.14v1.82c-.02.6.15,1.2.49,1.7.27.39.59.74.96,1.03.19.11.36.26.49.43.15.28.21.59.18.91v13.82c-1.29.26-2.12,1.51-1.87,2.8.19.94.92,1.68,1.87,1.87v21.04h17.24c.36-.01.71-.16.97-.42.33-.29.5-.72.48-1.15v-16.65h-2.55c-.81-.02-1.62.12-2.37.42"/><path class="cls-1" d="M103.07,174.83c-.1-.03-.2-.04-.3-.04h-.11s-19.25,0-19.25,0v1.76c-.03.65.08,1.29.34,1.88.2.42.53.76.94.97.21.13.4.29.55.49.18.24.26.54.25.85v13.76c-1.29.25-2.13,1.5-1.87,2.79.19.95.93,1.69,1.87,1.87v21.04h17.3c.15,0,.3-.03.44-.09.21-.07.41-.18.57-.33.3-.29.47-.69.45-1.1v-12.85h-2.55c-.81-.02-1.62.12-2.37.42-.65.36-1.01,1.09-.91,1.83,0,.24.06,6.65-.08,6.87-.14.22-.38.35-.64.33h-5.52c-.49,0-.73-.28-.73-.85v-14.15c0-.57.3-.85.91-.85h7.29c.6,0,.91-.28.91-.86v-3.39c.02-.28-.11-.54-.34-.7-.19-.13-.41-.2-.64-.21h-7.22c-.61,0-.91-.28-.91-.85v-12.69c0-.24.1-.47.27-.64.15-.16.36-.26.58-.27h5.81c.09.05.17.12.23.21.14.22.08,6.63.08,6.88-.1.74.26,1.46.91,1.82.75.3,1.56.45,2.37.43h2.55v-13.04c-.01-.35-.17-.68-.43-.92-.2-.2-.46-.32-.73-.37"/><path class="cls-1" d="M259.15,174.83c-.1-.03-.2-.04-.3-.04h-.11s-19.26,0-19.26,0v1.76c-.03.65.08,1.29.34,1.88.2.42.53.76.94.97.21.13.4.29.55.49.18.24.26.54.25.85v13.76c-1.29.25-2.13,1.5-1.87,2.79.19.95.93,1.69,1.87,1.87v21.04h17.3c.15,0,.3-.03.44-.09.21-.07.41-.18.57-.33.3-.28.47-.69.45-1.1v-12.85h-2.55c-.81-.02-1.62.12-2.37.42-.65.36-1.01,1.09-.91,1.83,0,.24.06,6.65-.09,6.87-.14.22-.38.34-.64.33h-5.53c-.48,0-.73-.28-.73-.85v-14.15c0-.57.3-.85.91-.85h7.29c.6,0,.91-.28.91-.86v-3.39c.02-.28-.11-.55-.34-.7-.19-.13-.41-.2-.64-.21h-7.23c-.6,0-.91-.28-.91-.85v-12.69c0-.24.1-.47.27-.64.15-.16.36-.26.58-.27h5.81c.09.05.17.12.23.21.14.22.09,6.63.09,6.88-.1.74.26,1.46.91,1.82.75.3,1.56.45,2.37.43h2.55v-13.04c-.01-.35-.16-.68-.42-.92-.2-.19-.46-.32-.73-.37"/><path class="cls-1" d="M221.27,8c-2.44,4.58,1.01,9.69,2.47,11.89,4.49,6.12,7.05,13.44,7.37,21.03.08,9.94-4.9,19.25-13.23,24.68,4.05-5.98,6.11-13.09,5.89-20.32,0-21.38-12.81-29.12-12.81-29.12,0,0-.31,1.28-1.09,1.28-2.77-.96-5.45-2.17-8.01-3.61-1.01-.54-2.41-1.36-2.89-1.64,0,0-2.09,1.1-3.09,1.64-2.55,1.44-5.23,2.65-8.01,3.61-.78,0-1.09-1.28-1.09-1.28,0,0-12.81,7.74-12.81,29.12-.22,7.22,1.84,14.33,5.89,20.32-8.33-5.44-13.31-14.74-13.23-24.68.32-7.59,2.89-14.9,7.38-21.03,1.47-2.2,4.91-7.31,2.47-11.89-1.86-2.83-5.22-4.29-8.56-3.7-35.02.59-110.79,15.87-162.36,45.92,5.26,8.5,14.71,13.47,24.69,12.99-2.53,1.24-5.05,2.5-7.57,3.8,5.81,8.14,15.73,12.29,25.61,10.69-3.01,1.42-6.01,2.88-8.99,4.38,6.79,8.2,17.1,12.65,27.73,11.96-4.39,2.22-7.05,3.63-7.03,3.63,9.07,7.79,21.16,11.06,32.92,8.91-2.2,1.6-4.41,3.3-7.04,5.13,10.04,5.04,21.34,7,32.49,5.65-2.27,1.72-4.53,3.45-6.79,5.21-.04-.24,26.89,7.37,46.05-1.07.71-.31,1.39-.67,2.07-1.02,5.93,21.64,28.28,34.37,49.92,28.44,13.83-3.79,24.64-14.6,28.43-28.43.69.35,1.36.71,2.07,1.02,19.16,8.44,46.09.83,46.06,1.07-2.26-1.76-4.52-3.49-6.79-5.21,11.15,1.35,22.45-.61,32.49-5.65-2.61-1.83-4.83-3.53-7.03-5.13,11.75,2.15,23.85-1.13,32.91-8.91.02,0-2.63-1.41-7.02-3.63,10.63.69,20.94-3.76,27.73-11.96-2.98-1.5-5.98-2.96-9-4.38,9.88,1.6,19.8-2.54,25.61-10.69-2.51-1.3-5.03-2.56-7.56-3.8,9.98.47,19.43-4.5,24.68-12.99C340.61,20.16,264.85,4.88,229.83,4.29c-4.22-.07-7.09.96-8.56,3.7"/><path class="cls-4" d="M229.9.08h-.47c-4.78-.52-9.43,1.8-11.89,5.94-1.53,2.95-1.79,6.4-.71,9.54-.74-.8-1.56-1.51-2.45-2.14-1.97-1.44-4.04-2.73-6.21-3.85,0,0,.44,2.76-.57,2.43-.58-.2-1.16-.44-1.72-.71-2.85-1.35-6.98-3.84-6.98-3.84,0,0-4.2,2.49-7.05,3.84-.56.27-1.13.5-1.72.71-1.01.33-.57-2.43-.57-2.43-2.17,1.12-4.24,2.41-6.21,3.85-.89.62-1.71,1.34-2.45,2.14,1.08-3.14.83-6.59-.71-9.54-2.46-4.14-7.1-6.46-11.89-5.94h-.46C132.71.67,56.15,15.85,3.44,46.57l-3.44,2.13c3.35,7.91,9.87,14.05,17.96,16.94l-1.74.84s7.22,11.72,18.45,14.15l-2.14.89c5.43,8,13.78,13.56,23.25,15.49l-2.27,1.11c7.45,7.4,17.27,11.96,27.73,12.88l-2.43,1.86c8.4,5.05,17.8,8.21,27.54,9.27l-2.64,2.35s29.09,10.64,53.45,1.77c6.82,17.07,23.33,28.28,41.71,28.33h0c18.38-.04,34.89-11.25,41.71-28.33,24.36,8.86,53.45-1.77,53.45-1.77l-2.64-2.35c9.74-1.07,19.14-4.23,27.54-9.27l-2.44-1.86c10.46-.92,20.27-5.48,27.73-12.88l-2.26-1.11c9.48-1.93,17.82-7.49,23.25-15.49l-2.14-.89c11.22-2.43,18.45-14.15,18.45-14.15l-1.74-.84c8.09-2.88,14.6-9.03,17.95-16.94l-3.43-2.13C341.58,15.85,265.03.67,229.9.08M367.5,63.21c2.53,1.24,5.05,2.5,7.56,3.8-5.81,8.14-15.74,12.29-25.61,10.69,3.01,1.42,6.01,2.88,9,4.38-6.79,8.2-17.1,12.65-27.73,11.96,4.39,2.22,7.04,3.63,7.02,3.63-9.06,7.79-21.16,11.06-32.91,8.91,2.2,1.6,4.42,3.3,7.03,5.13-10.04,5.04-21.34,7-32.49,5.65,2.27,1.72,4.54,3.45,6.79,5.21.03-.23-26.9,7.37-46.06-1.07-.71-.31-1.38-.67-2.07-1.02-5.93,21.64-28.29,34.37-49.92,28.43-13.83-3.79-24.64-14.6-28.43-28.43-.68.35-1.36.71-2.07,1.02-19.16,8.44-46.1.84-46.05,1.07,2.26-1.76,4.52-3.49,6.79-5.21-11.15,1.35-22.45-.62-32.49-5.65,2.62-1.83,4.84-3.53,7.04-5.13-11.76,2.15-23.85-1.13-32.92-8.91-.02,0,2.64-1.41,7.03-3.63-10.63.69-20.94-3.76-27.73-11.96,2.99-1.5,5.99-2.96,8.99-4.38-9.87,1.6-19.8-2.54-25.61-10.69,2.52-1.3,5.04-2.56,7.57-3.8-9.98.48-19.43-4.5-24.69-12.99C57.13,20.16,132.89,4.88,167.91,4.29c3.34-.58,6.7.87,8.56,3.7,2.44,4.58-1,9.69-2.47,11.89-4.49,6.13-7.05,13.44-7.38,21.03-.08,9.94,4.91,19.24,13.23,24.68-4.05-5.98-6.11-13.09-5.89-20.32,0-21.38,12.81-29.12,12.81-29.12,0,0,.31,1.28,1.09,1.28,2.77-.96,5.45-2.17,8.01-3.61,1-.54,3.09-1.64,3.09-1.64.49.28,1.89,1.1,2.89,1.64,2.55,1.44,5.23,2.65,8.01,3.61.78,0,1.09-1.28,1.09-1.28,0,0,12.81,7.74,12.81,29.12.22,7.22-1.84,14.33-5.89,20.32,8.33-5.44,13.31-14.74,13.23-24.68-.32-7.59-2.89-14.9-7.37-21.03-1.46-2.2-4.91-7.31-2.47-11.89,1.47-2.75,4.34-3.78,8.56-3.7,35.01.59,110.78,15.87,162.36,45.92-5.26,8.49-14.71,13.47-24.68,12.99"/><path class="cls-4" d="M143.08,32.26c-26.57,3.87-52.71,10.19-78.11,18.89,6.57,11.7,24.41,6.79,24.41,6.79,33.46-9.47,48.39-12.68,53.19-13.61-.18-4.03-.01-8.07.52-12.07"/><path class="cls-4" d="M143.37,51.49c-21.13,4.19-41.9,10.01-62.14,17.4,0,0,8.79,10.02,26.24,5.07,14.67-4.16,33.49-10.16,39.1-11.96-1.48-3.36-2.55-6.89-3.2-10.5"/><path class="cls-4" d="M149.5,67.52c-5.96,1.93-35.76,11.58-48.34,16.41,0,0,7.22,9.68,28.05,1.47,14.51-5.72,22.51-9.05,26.03-10.56-2.16-2.24-4.09-4.69-5.74-7.33"/><path class="cls-4" d="M159.85,79.06c-5.21,2.26-24.54,10.71-35.73,16.09,0,0,14.07,6.92,31.78-4.02l11.01-7.23c-2.47-1.44-4.83-3.06-7.06-4.85"/><path class="cls-4" d="M254.65,32.26c26.57,3.87,52.72,10.19,78.12,18.89-6.57,11.7-24.41,6.79-24.41,6.79-33.47-9.47-48.39-12.68-53.19-13.61.18-4.03,0-8.07-.52-12.07"/><path class="cls-4" d="M254.37,51.49c21.13,4.19,41.9,10.01,62.14,17.4,0,0-8.8,10.02-26.24,5.07-14.67-4.16-33.48-10.16-39.09-11.96,1.47-3.36,2.55-6.89,3.2-10.5"/><path class="cls-4" d="M248.24,67.52c5.96,1.93,35.76,11.58,48.33,16.41,0,0-7.21,9.68-28.05,1.47-14.51-5.72-22.51-9.05-26.03-10.56,2.17-2.24,4.09-4.69,5.75-7.33"/><path class="cls-4" d="M237.89,79.06c5.2,2.26,24.54,10.71,35.72,16.09,0,0-14.07,6.92-31.78-4.02l-11-7.23c2.47-1.44,4.83-3.06,7.06-4.85"/><path class="cls-4" d="M143.08,32.26c-26.57,3.87-52.71,10.19-78.11,18.89,6.57,11.7,24.41,6.79,24.41,6.79,33.46-9.47,48.39-12.68,53.19-13.61-.18-4.03-.01-8.07.52-12.07"/><path class="cls-4" d="M143.37,51.49c-21.13,4.19-41.9,10.01-62.14,17.4,0,0,8.79,10.02,26.24,5.07,14.67-4.16,33.49-10.16,39.1-11.96-1.48-3.36-2.55-6.89-3.2-10.5"/><path class="cls-4" d="M149.5,67.52c-5.96,1.93-35.76,11.58-48.34,16.41,0,0,7.22,9.68,28.05,1.47,14.51-5.72,22.51-9.05,26.03-10.56-2.16-2.24-4.09-4.69-5.74-7.33"/><path class="cls-4" d="M159.85,79.06c-5.21,2.26-24.54,10.71-35.73,16.09,0,0,14.07,6.92,31.78-4.02l11.01-7.23c-2.47-1.44-4.83-3.06-7.06-4.85"/><path class="cls-4" d="M254.65,32.26c26.57,3.87,52.72,10.19,78.12,18.89-6.57,11.7-24.41,6.79-24.41,6.79-33.47-9.47-48.39-12.68-53.19-13.61.18-4.03,0-8.07-.52-12.07"/><path class="cls-4" d="M254.37,51.49c21.13,4.19,41.9,10.01,62.14,17.4,0,0-8.8,10.02-26.24,5.07-14.67-4.16-33.48-10.16-39.09-11.96,1.47-3.36,2.55-6.89,3.2-10.5"/><path class="cls-4" d="M248.24,67.52c5.96,1.93,35.76,11.58,48.33,16.41,0,0-7.21,9.68-28.05,1.47-14.51-5.72-22.51-9.05-26.03-10.56,2.17-2.24,4.09-4.69,5.75-7.33"/><path class="cls-4" d="M237.89,79.06c5.2,2.26,24.54,10.71,35.72,16.09,0,0-14.07,6.92-31.78-4.02l-11-7.23c2.47-1.44,4.83-3.06,7.06-4.85"/><path class="cls-4" d="M146.9,103.45c3.79,1.26,7.87,1.43,11.75.46.5-3.57,1.47-7.06,2.89-10.37-5.16,3.34-10.91,7.15-14.64,9.9"/><path class="cls-4" d="M250.84,103.45c-3.72-2.75-9.47-6.56-14.63-9.9,1.42,3.31,2.39,6.8,2.89,10.37,3.88.96,7.95.8,11.74-.47"/><path class="cls-3" d="M170.16,15.11c2.73-3.9,1.36-5.47-8.99-4.49C112.72,15.51,65.48,28.83,21.6,49.96c4.2,2.13,9.14,2.24,13.43.3,2.73-.98,7.42-2.93,7.42-2.93,66.79-26.95,115.51-28.97,115.51-28.97-13.71,33.61,3.58,51.44,15.84,59.34.55-.44,1.12-.86,1.7-1.27-31.59-27.51-7.41-58.35-5.33-61.32"/><path class="cls-3" d="M236.56,10.62c-10.35-.98-11.72.59-8.99,4.49,2.08,2.96,26.26,33.81-5.33,61.32.58.41,1.14.83,1.7,1.27,12.26-7.9,29.55-25.72,15.84-59.34,0,0,48.73,2.02,115.51,28.97,0,0,4.69,1.95,7.42,2.93,4.29,1.94,9.23,1.83,13.43-.3-43.89-21.13-91.12-34.44-139.58-39.34"/><path class="cls-4" d="M209.75,133.34c-1.93.51-3.9.88-5.89,1.1-.64,1.16-1.21,2.36-1.71,3.59l-.77,1.97v4.37c4.45-.31,8.79-1.49,12.79-3.45-2.24-1.99-3.79-4.65-4.42-7.58"/><path class="cls-4" d="M193.88,134.44c-1.99-.22-3.96-.59-5.89-1.1-.63,2.94-2.18,5.59-4.43,7.58,4,1.97,8.34,3.14,12.79,3.46v-4.4l-.78-1.97c-.5-1.22-1.06-2.41-1.7-3.57"/><path class="cls-3" d="M192.03,54.8l.06-.1c1.02-1.95.53-4.35-1.17-5.74,0,0-6.71,1.41-6.88-7.49.02-.99-.25-1.97-.77-2.81,0,0,1.72-1.56,5.46,1.25,3.74,2.8,5.78,10.77,7.81,8.9,2-1.86,1.28-12.23,2.33-12.62,1.03.39.32,10.76,2.33,12.62,2.03,1.87,4.05-6.09,7.81-8.9,3.73-2.81,5.46-1.25,5.46-1.25-.52.84-.79,1.82-.78,2.81-.15,8.9-6.86,7.49-6.86,7.49-1.7,1.39-2.19,3.79-1.16,5.73.02.04.04.07.07.11,4.23-4.55,7.53-6.36,9.36-5.63.02-.04.03-.07.05-.11,1.53-2.81,2.2-6,1.94-9.18.05-5.58-1.94-10.98-5.59-15.19,0,0-.09,1.88-3.25-.23-5.63-3.95-13.14-3.95-18.76.01-3.05,2.07-3.2.21-3.2.21-3.64,4.22-5.62,9.62-5.58,15.19-.2,3.09.43,6.19,1.81,8.96.05.11.09.23.14.34,1.82-.76,5.13,1.05,9.4,5.63"/><path class="cls-2" d="M188.89,45.94c-.57-.16-.9-.74-.75-1.31.06-.22.19-.41.38-.53-.4-.46-.86-.87-1.35-1.23,0,0-.94,4.37,2.96,3.9-.12-.33-.26-.64-.43-.94-.25.14-.54.19-.82.11"/><path class="cls-2" d="M210.56,42.87c-.49.36-.95.77-1.35,1.23.18.14.31.32.38.53.16.57-.17,1.15-.74,1.31-.28.08-.58.04-.83-.11-.16.3-.3.62-.41.94,3.9.47,2.96-3.9,2.96-3.9"/><path class="cls-2" d="M193.44,97.16c-2.87-15.12-5.14-26.31-6.97-34.42-1.4-6.2,2.33-3.72,4.34.16l2.64,34.26Z"/><path class="cls-2" d="M204.3,97.16c2.88-15.12,5.14-26.31,6.97-34.42,1.39-6.2-2.33-3.72-4.34.16l-2.64,34.26Z"/><path class="cls-2" d="M200.7,102.77c1.24-23.36,3.1-39.9,3.1-41.97,0-.92-.13-1.84-.39-2.72l-1.36,4.44-.42-7.85c-.8-1-1.74-1.87-2.78-2.61h-.07c-1.02.73-1.92,1.61-2.68,2.6l-.41,7.85-1.37-4.45c-.26.89-.39,1.8-.39,2.73,0,2.07,1.85,18.61,3.1,41.97,1.24,23.36-1.65,27.7-1.65,27.7,1.34,2.15,2.51,4.41,3.49,6.75.98-2.34,2.15-4.59,3.5-6.75,0,0-2.9-4.34-1.66-27.7"/><path class="cls-3" d="M228.52,113.53c2.08-3.2,3.61-6.72,4.53-10.42-1.16-6.03-3.9-11.64-7.94-16.27.72,4.73.27,9.56-1.32,14.07l-.02.05c2.51,3.79,4.12,8.11,4.71,12.62l.03-.04Z"/><path class="cls-3" d="M173.95,100.91c-1.59-4.51-2.04-9.35-1.32-14.07-4.03,4.62-6.76,10.22-7.93,16.24.92,3.74,2.45,7.3,4.52,10.55l.02.03c.57-4.54,2.19-8.89,4.72-12.7l-.02-.04Z"/><path class="cls-3" d="M219.91,96.19c1.43-5.67.27-11.68-3.18-16.39-1.63-.96-3.34-1.78-5.11-2.46-.83,3.89-1.68,7.97-2.52,12.02v.05c4.04,1.47,7.73,3.8,10.79,6.82v-.04Z"/><path class="cls-3" d="M188.67,89.34c-.84-4.04-1.7-8.13-2.53-12.01-1.77.68-3.49,1.5-5.13,2.46-3.45,4.72-4.62,10.73-3.18,16.39v.04c3.09-3.04,6.79-5.37,10.85-6.84v-.05Z"/><path class="cls-3" d="M233.13,115.78c-1.36,2.19-2.93,4.25-4.69,6.13l-.04.04c-.63,4.22-2.16,8.26-4.48,11.84l.09-.09c4.74-4.94,7.91-11.18,9.12-17.92"/><path class="cls-3" d="M169.3,121.9c-1.76-1.89-3.33-3.94-4.7-6.13,1.21,6.75,4.39,12.98,9.14,17.93.02.02.05.05.08.07-2.33-3.58-3.86-7.62-4.48-11.85l-.03-.03Z"/><path class="cls-4" d="M214.7,125.95c5.6-2.85,10.35-7.12,13.78-12.38-.58-4.51-2.2-8.83-4.71-12.62-1.13,3.4-2.44,6.73-3.94,9.99-2.37,4.75-4.1,9.8-5.14,15.01"/><path class="cls-4" d="M183.05,126.07c-1.03-5.25-2.76-10.34-5.15-15.13-1.5-3.26-2.81-6.59-3.95-9.99-2.53,3.82-4.15,8.16-4.72,12.71,3.4,5.31,8.17,9.6,13.82,12.41"/><path class="cls-4" d="M205.22,128.69l.22.44c1.36-.26,2.7-.61,4.01-1.03.73-6.7,2.69-13.21,5.78-19.2,1.97-4.06,3.53-8.31,4.67-12.67-3.07-3.03-6.75-5.36-10.81-6.82-2.49,12.03-4.76,23.55-5.3,27.55-.14,3.96.35,7.92,1.43,11.73"/><path class="cls-4" d="M188.3,128.17c1.31.41,2.65.74,4,.99l.24-.47c1.1-3.95,1.58-8.06,1.43-12.16-.64-4.38-2.86-15.52-5.28-27.13-4.07,1.47-7.77,3.8-10.84,6.84,1.14,4.37,2.7,8.61,4.66,12.68,3.11,6,5.07,12.53,5.79,19.26"/><path class="cls-4" d="M214.59,131.65c.03.23.05.46.08.69.59,2.39,2.03,4.49,4.06,5.89,1.87-1.31,3.6-2.8,5.18-4.44,2.33-3.58,3.86-7.61,4.48-11.84-3.86,4.18-8.56,7.49-13.8,9.7"/><path class="cls-4" d="M183.07,132.34c.04-.23.05-.46.08-.69-5.25-2.22-9.96-5.53-13.82-9.72.63,4.22,2.16,8.26,4.48,11.85,1.58,1.65,3.32,3.14,5.19,4.45,2.02-1.4,3.47-3.5,4.06-5.89"/></svg>