<?xml version="1.0" encoding="UTF-8"?><svg id="uuid-d26f2c94-3c94-451b-8970-e034dbffd988" xmlns="http://www.w3.org/2000/svg" viewBox="0 0 219.92 219.92">
<title>Philadelphia 76ers logo - Brandlogos.net</title><path d="M219.92,109.96c0,60.73-49.23,109.96-109.96,109.96S0,170.69,0,109.96,49.23,0,109.96,0c60.72-.01,109.95,49.2,109.96,109.92v.04" style="fill:#fff;"/><path d="M215.87,109.96c0,58.49-47.42,105.91-105.91,105.91-58.49,0-105.91-47.42-105.91-105.91,0-58.49,47.42-105.91,105.91-105.91,0,0,0,0,0,0,58.49,0,105.91,47.42,105.91,105.91" style="fill:#1d428a;"/><polygon points="20.39 128.02 22.56 134.93 29.89 134.93 23.98 139.24 26.11 146.04 20.39 141.88 14.58 146.04 16.76 139.24 10.8 134.93 18.13 134.93 20.39 128.02" style="fill:#fff;"/><polygon points="199.57 128.02 201.74 134.93 209.11 134.93 203.15 139.24 205.33 146.04 199.57 141.88 193.8 146.04 195.98 139.24 190.02 134.93 197.31 134.93 199.57 128.02" style="fill:#fff;"/><polygon points="46.12 165.05 48.3 171.92 55.63 171.92 49.67 176.28 51.85 183.07 46.12 178.91 40.32 183.07 42.49 176.28 36.54 171.92 43.87 171.92 46.12 165.05" style="fill:#fff;"/><polygon points="176.24 165.05 178.41 171.92 185.74 171.92 179.83 176.28 182 183.07 176.24 178.91 170.43 183.07 172.65 176.28 166.69 171.92 173.99 171.92 176.24 165.05" style="fill:#fff;"/><polygon points="86.25 189.14 88.39 196.05 95.75 196.05 89.8 200.37 91.97 207.16 86.25 203 80.44 207.16 82.62 200.37 76.67 196.05 84 196.05 86.25 189.14" style="fill:#fff;"/><polygon points="135 189.14 137.18 196.05 144.51 196.05 138.55 200.37 140.73 207.16 135 203 129.2 207.16 131.38 200.37 125.42 196.05 132.75 196.05 135 189.14" style="fill:#fff;"/><path d="M189.37,110.45c0,43.86-35.55,79.41-79.41,79.41S30.54,154.31,30.54,110.45c0-43.86,35.55-79.41,79.41-79.41h0c43.85,0,79.41,35.54,79.41,79.39v.02" style="fill:#fff;"/><path d="M35.28,126.07c8.63,41.24,49.05,67.68,90.3,59.06,19.87-3.99,37.27-15.86,48.22-32.91,10.94-16.99,14.83-37.57,10.84-57.38-8.64-41.22-49.02-67.66-90.26-59.1-41.26,8.61-67.72,49.04-59.11,90.3,0,.01,0,.02,0,.04" style="fill:#1d428a;"/><path d="M135.92,51.01c.27,2.98-1.15,5.88-4.12,8.63-14.32-10.5-27.95-15.65-41.31-15.73-2.8,0-5.6.22-8.36.65,4.26-1.79,8.69-3.17,13.21-4.12,11.75-2.47,23.94-1.93,35.43,1.57,2.48,2.41,4.89,5.54,5.15,9.01" style="fill:#fff;"/><path d="M120.99,174.25c15.04-13.82,22.03-43.41,26.19-61.09l.65-2.75c2.14-9.01,5.92-15.73,10-19.74,15.08,23.44,13.06,47.65,9.24,62.84-13.54,17.92-34.69,28.46-57.16,28.48,4.03-2.06,7.76-4.67,11.07-7.75" style="fill:#fff;"/><path d="M148.33,73.84c6.11-5.12,11-9.01,14.47-11.57,7.57,8.27,13.07,18.21,16.07,29.02-2.83-3.78-6.41-7.37-10.31-8.17-3.36-.69-6.8.27-10.04,2.56-3.08-4.21-6.49-8.17-10.19-11.84" style="fill:#fff;"/><path d="M39.82,107.25c6.95-18.63,32.41-26.27,42-29.13l.42-.11c4.25-1.11,8.56-1.97,12.9-2.6,12.33-2.1,27.57-4.7,36.77-11.57,4,3.06,7.84,6.34,11.49,9.81-20.81,17.68-52.99,47.38-87.32,83.84-8.09-9.23-13.64-20.4-16.11-32.41-1.02-4.79-1.53-9.68-1.53-14.58.8-1.91,1.37-3.25,1.37-3.25" style="fill:#fff;"/><path d="M145.92,71.51c-3.64-3.48-7.47-6.77-11.45-9.85,3.47-3.4,5.08-7.06,4.73-10.96-.24-2.33-1.05-4.56-2.37-6.49,8.83,3.62,16.85,8.94,23.63,15.65-3.59,2.67-8.51,6.61-14.55,11.64" style="fill:#fff;"/><path d="M129.12,61.78c-8.63,5.96-22.91,8.4-34.55,10.35-4.47.66-8.91,1.55-13.29,2.67l-.42.11c-9.2,2.75-32.34,9.66-41.88,26.34,1.39-10.7,5.19-20.95,11.11-29.97,5.09-7.82,11.59-14.61,19.17-20.04,16.95-7.14,35.97-6.64,59.87,10.54" style="fill:#fff;"/><path d="M167.88,86.36c5,1.03,10.35,9.43,12.9,14.24,2.23,15.61-.82,31.52-8.67,45.21.38-2.41.69-4.96.92-7.64,1.42-17.51-3.03-35-12.64-49.71,2.6-1.83,5.19-2.56,7.48-2.1" style="fill:#fff;"/><path d="M145.81,75.98c3.71,3.64,7.1,7.6,10.12,11.84-4.89,4.66-9.05,12.37-11.3,21.84l-.65,2.79c-4.09,17.33-10.92,46.31-25.2,59.41-4.77,4.52-10.54,7.86-16.84,9.74-11.12-1.26-21.8-5.12-31.15-11.26-4.53-2.97-8.72-6.44-12.48-10.35,34.67-36.88,66.97-66.55,87.51-84" style="fill:#fff;"/><path d="M129.7,131.68l1.95-.53c1.18-.31,1.95-.69,1.95-2.41,0-1.41-.38-3.97-2.1-3.97s-1.79,3.05-1.79,4.7v2.21Z" style="fill:#fff;"/><path d="M106.45,130.61c0-6.11-.23-11.38-4.35-11.38-3.36,0-3.97,5.27-3.97,11.38s-.19,11.42,3.97,11.42c3.47-.04,4.35-5.31,4.35-11.42" style="fill:#fff;"/><path d="M129.7,131.68l1.95-.53c1.18-.31,1.95-.69,1.95-2.41,0-1.41-.38-3.97-2.1-3.97s-1.79,3.05-1.79,4.7v2.21Z" style="fill:#fff;"/><path d="M97.63,116.6h.08c1.99-3.09,5.77-4.58,9.47-4.58,8.4,0,13.55,7.25,13.55,16.99,0,11.53-7.83,18.4-17.49,18.4-14.85,0-20.27-11.99-20.27-25.89,0-16,6.95-29.21,24.24-29.21,6.76,0,12.29,4.35,12.29,11,.11,3.44-2.59,6.31-6.03,6.42-.17,0-.33,0-.5,0-4.66,0-6.15-3.89-6.83-7.33-.27-1.45.27-4.66-2.14-4.66-5.04,0-5.84,9.85-6.07,13.48l-.31,5.38Z" style="fill:#fff;"/><path d="M106.45,130.61c0-6.11-.23-11.38-4.35-11.38-3.36,0-3.97,5.27-3.97,11.38s-.19,11.42,3.97,11.42c3.47-.04,4.35-5.31,4.35-11.42" style="fill:#fff;"/><path d="M16.38,92.93c2.83.34,3.97,2.33,3.55,5.99l-.31,2.67,1.53.19c1.95.23,2.67.19,2.9-1.37l1.79.23-.84,7.25-1.79-.23c.15-1.6-.57-1.79-2.52-2.02l-5.65-.65c-1.95-.23-2.67-.19-2.9,1.37l-1.79-.23.95-7.94c.46-3.89,2.18-5.61,5.08-5.27ZM17.91,100.64c.27-2.41-.42-3.7-2.14-3.89-1.49-.19-2.56.76-2.79,2.56-.15,1.26.31,1.53,1.68,1.68l3.13.38c.04-.23.08-.46.11-.73Z" style="fill:#fff;"/><path d="M26.99,84.91c.57-1.49-.04-1.87-1.83-2.63l-5.23-2.18c-1.79-.76-2.52-.92-3.17.53l-1.68-.69,2.83-6.72,1.64.69c-.57,1.49.04,1.87,1.83,2.63l1.34.57,2.1-5.04-1.34-.57c-1.79-.76-2.52-.92-3.17.53l-1.64-.69,2.83-6.72,1.68.69c-.57,1.49.04,1.87,1.83,2.63l5.23,2.18c1.79.76,2.52.92,3.17-.53l1.68.69-2.83,6.72-1.64-.69c.57-1.49-.04-1.87-1.83-2.63l-2.29-.95-2.1,5.04,2.29.95c1.79.76,2.52.92,3.17-.53l1.64.69-2.83,6.72-1.68-.69Z" style="fill:#fff;"/><path d="M34.02,49.21c-.92,1.3-.42,1.83,1.15,3.02l4.54,3.4c1.57,1.18,2.21,1.49,3.21.27l1.45,1.07-4.35,5.8-1.45-1.07c.92-1.3.42-1.83-1.18-3.02l-4.54-3.4c-1.57-1.18-2.21-1.53-3.21-.27l-1.45-1.07,4.35-5.8,1.49,1.07Z" style="fill:#fff;"/><path d="M50.44,50.05l-1.15-1.37c1.18-1.07.8-1.68-.46-3.17l-3.67-4.35c-1.26-1.49-1.79-1.99-3.05-.99l-1.15-1.37,5.57-4.66,1.15,1.37c-1.18,1.07-.84,1.68.42,3.21l4.09,4.85c.95,1.11,1.37,1.3,2.52.34,1.53-1.3,2.18-3.59,1.64-6.49l1.6-.34,1.64,5.35-9.16,7.64Z" style="fill:#fff;"/><path d="M67.73,36.73l-.76-1.64c1.37-.84,1.3-1.76,1.26-3.36l-.38-11.26,3.05-1.37,8.4,8.21c.95.92,1.49,1.37,2.71.95l.76,1.64-6.64,3.02-.73-1.6c.06,0,.11-.04.15-.08.92-.42,1.26-.8.99-1.37-.09-.2-.22-.38-.38-.53l-1.53-1.53-4.28,1.95.27,2.1c.02.16.05.31.11.46.31.65.92.69,1.95.23l.73,1.6-5.69,2.6ZM73.15,26.46l-3.13-3.36.27,4.7,2.86-1.34Z" style="fill:#fff;"/><path d="M90.18,25.85c1.57-.27,1.6-.99,1.34-2.94l-.8-5.61c-.27-1.95-.5-2.63-2.1-2.44l-.27-1.79,7.33-1.03c5.65-.8,9.01,1.41,9.7,6.07.65,4.7-1.95,7.71-7.6,8.55l-7.33,1.03-.27-1.83ZM95.45,23.25c.19,1.45.46,1.83,1.99,1.6,2.9-.42,4.51-2.71,3.97-6.22-.5-3.51-2.63-5.27-5.57-4.85-1.53.23-1.64.65-1.45,2.1l1.07,7.37Z" style="fill:#fff;"/><path d="M115.8,23.71c1.57.19,1.83-.5,2.1-2.44l.8-5.61c.27-1.95.27-2.67-1.3-2.94l.27-1.79,12.1,1.76,1.34,4.7-1.45.5c-1.18-2.44-2.86-3.86-5.12-4.16-1.45-.23-1.72.19-1.91,1.6l-.31,2.1.69.11c1.53.23,1.99-.19,2.33-1.99l1.53.23-.95,6.57-1.53-.23c.04-1.72-.46-2.6-1.64-2.75l-.69-.11-.5,3.4c-.19,1.41-.08,1.87,1.41,2.06,2.14.31,4.66-.73,6.64-3.09l1.26.95-2.94,4.7-12.41-1.83.27-1.72Z" style="fill:#fff;"/><path d="M138.63,30.16l.73-1.64c1.49.61,1.87,0,2.67-1.83l2.29-5.19c.8-1.79.99-2.48-.46-3.17l.73-1.64,6.64,2.9-.73,1.64c-1.49-.61-1.87,0-2.67,1.79l-2.56,5.8c-.57,1.34-.53,1.79.84,2.41,1.83.8,4.2.38,6.53-1.41l1.03,1.26-4.05,3.86-11-4.77Z" style="fill:#fff;"/><path d="M176.01,40.97c-1.79,2.21-4.09,2.14-6.99-.19l-2.1-1.68-.95,1.18c-1.22,1.53-1.6,2.18-.38,3.21l-1.15,1.41-5.65-4.58,1.15-1.41c1.26.95,1.83.5,3.05-1.03l3.55-4.43c1.22-1.53,1.57-2.18.38-3.21l1.15-1.41,6.22,5.04c3.02,2.41,3.55,4.81,1.72,7.1ZM168.64,38.1c1.87,1.53,3.36,1.6,4.43.27.95-1.18.73-2.56-.69-3.7-.99-.8-1.45-.57-2.33.5l-1.99,2.44c.23.19.42.34.57.5Z" style="fill:#fff;"/><path d="M177.12,54.22c.95,1.3,1.6.99,3.21-.15l4.66-3.25c1.6-1.11,2.14-1.64,1.26-2.98l1.49-1.03,4.16,5.96-1.45,1.03c-.95-1.3-1.6-.99-3.21.15l-1.18.84,3.13,4.47,1.18-.84c1.6-1.11,2.14-1.64,1.26-2.98l1.45-1.03,4.16,5.96-1.49,1.03c-.95-1.3-1.6-.99-3.21.15l-4.66,3.25c-1.6,1.11-2.14,1.64-1.26,2.98l-1.49,1.03-4.16-5.96,1.45-1.03c.95,1.3,1.6.99,3.21-.15l2.02-1.41-3.13-4.47-2.02,1.41c-1.6,1.11-2.14,1.64-1.26,2.98l-1.45,1.03-4.16-5.96,1.49-1.03Z" style="fill:#fff;"/><path d="M203.58,79.22c-.61-1.49-1.34-1.34-3.17-.65l-5.31,2.02c-1.83.69-2.44,1.07-1.95,2.6l-1.68.65-2.6-6.8,1.68-.65c.61,1.49,1.34,1.3,3.17.61l5.31-2.02c1.83-.69,2.48-1.07,1.95-2.56l1.68-.65,2.6,6.8-1.68.65Z" style="fill:#fff;"/><path d="M194.07,91.82l1.79-.23c.38,1.57,1.3,1.76,2.83,2.18l10.88,2.94.42,3.32-10.31,5.61c-1.18.65-1.76.99-1.72,2.33l-1.79.23-.95-7.22,1.76-.23v.15c.11.99.42,1.45,1.03,1.37.23-.04.45-.12.65-.23l1.91-1.03-.61-4.66-2.1-.38c-.16-.03-.33-.04-.5-.04-.69.08-.92.69-.8,1.79l-1.76.23-.73-6.15ZM202.32,99.99l4.12-2.02-4.54-1.11.42,3.13Z" style="fill:#fff;"/><path d="M154.59,119.73c-1.47,0-2.86.64-3.82,1.76-.11-.23-.19-.46-.31-.65l-.8-1.57-11.42,3.36v6.26h2.1c.19,0,.31.04.34,0,.27.86.36,1.77.27,2.67v7.25l-2.1.31v6.87h15.81v-6.87l-2.06-.31v-2.14c.05-1.66.24-3.3.57-4.93.67.21,1.36.31,2.06.31,2.83,0,4.81-2.56,4.81-6.19.04-3.67-2.18-6.15-5.46-6.15Z" style="fill:#fff;"/><path d="M174.41,127.02c-.11-.32-.18-.65-.19-.99,0-1.87-.76-6.22-7.67-6.22-3.82,0-11.34,2.94-11.34,9.77-.06,2.06.58,4.08,1.83,5.73-1.6,1.03-2.54,2.83-2.44,4.73,0,2.44,1.22,6.57,9.51,6.57,7.1,0,11.15-3.67,11.15-10.08.04-6.11-.5-8.13-.84-9.51Z" style="fill:#fff;"/><path d="M90.87,90.3c-.43-.5-1.06-.79-1.72-.8-1.03,0-1.87.65-2.86,1.72-3.43,3.59-8.21,5.57-13.17,5.46-6.87,0-14.13-3.17-19.89-8.67-.45-.44-1.05-.69-1.68-.69-2.83,0-3.55,4.51-3.55,4.58v22.64l1.79.27c6.01,1.04,12.17.82,18.1-.65-5.8,5.19-18.86,19.32-18.67,32.76.04,2.48,1.57,2.75,2.21,2.75.65-.01,1.26-.27,1.72-.73.11-.08.23-.19.34-.27,2.48-1.55,5.37-2.31,8.28-2.18,2.64-.04,5.26.5,7.67,1.57.43.24.92.37,1.41.38.64,0,1.25-.26,1.68-.73.55-.69.76-1.58.57-2.44-.95-9.77,1.18-20.43,5.35-26.57l.61-.92c3.55-5.23,10.92-16.15,12.29-25.16.2-.81.02-1.67-.5-2.33Z" style="fill:#fff;"/><path d="M143.44,133.55l-.11-1.72c-.06-1.08-.23-2.16-.5-3.21l-.08-1.99-.38.57c-1.47-4.5-5.69-7.53-10.42-7.48-7.33,0-12.45,5.8-12.45,14.09,0,6.38,3.74,12.79,12.03,12.79,4.64.06,8.98-2.31,11.42-6.26l.31-.53-.23-6.15.42-.11ZM134.55,137.52c-.72-.02-1.37-.45-1.68-1.11l4.05-1.11c-.63.9-1.43,1.65-2.37,2.21h0Z" style="fill:#fff;"/><path d="M116.14,113.51c-.42-.57-.88-1.26-1.26-1.83,4.02-.7,6.9-4.25,6.76-8.32,0-7.48-6.19-13.1-14.39-13.1-16.49,0-26.38,11.72-26.38,31.31,0,17.79,8.17,27.99,22.37,27.99,11.53,0,19.59-8.44,19.59-20.5.04-6.03-4.01-11.76-6.68-15.54Z" style="fill:#fff;"/><path d="M134.58,139.66c-2.56,0-4.09-2.33-4.31-4.7l11-2.98c-.31-5.38-3.44-10.12-9.28-10.12-6.22,0-10.35,4.85-10.35,11.99,0,5.57,3.21,10.65,9.93,10.65,3.9.08,7.54-1.91,9.58-5.23l-2.18-2.6c-1.03,1.68-2.29,2.98-4.39,2.98ZM129.74,129.51c0-1.64,0-4.7,1.79-4.7,1.68,0,2.1,2.56,2.1,3.97.15,1.17-.68,2.24-1.85,2.39-.03,0-.07,0-.1.01l-1.95.53v-2.21Z" style="fill:#1d428a;"/><path d="M152.64,143.9h-11.61v-2.94l2.1-.31v-9.09c0-3.25-.42-4.81-2.75-4.81v-2.56l8.25-2.41c.86,1.88,1.33,3.92,1.37,5.99h.08c.84-2.48,1.87-5.96,4.54-5.96,2.37,0,3.4,1.83,3.4,4.05s-.99,4.09-2.71,4.09c-.95-.06-1.88-.29-2.75-.69-1.49-.5-1.99,6.03-1.99,7.41v3.97l2.06.31v2.94h0Z" style="fill:#1d428a;"/><path d="M172.15,126.07c0,1.79-1.57,2.71-3.21,2.71-1.95-.11-3.55-1.61-3.78-3.55-.84,0-1.45.42-1.45,1.87,0,3.36,9.51.95,9.51,9.47,0,6.38-4.62,7.98-9.05,7.98-2.71,0-7.41-.34-7.41-4.47,0-1.87,1.03-3.28,2.9-3.28,2.86,0,3.36,2.63,3.86,4.51.14.4.54.64.95.57,1.53,0,2.63-.61,2.63-1.64,0-3.82-9.74-2.33-9.74-10.65,0-5.27,6.22-7.64,9.24-7.64,3.4,0,5.54,1.15,5.54,4.12" style="fill:#1d428a;"/><path d="M107.25,112.06c-3.7,0-7.48,1.49-9.47,4.58h-.08l.38-5.35c.23-3.63,1.03-13.48,6.07-13.48,2.41,0,1.87,3.21,2.14,4.66.65,3.4,2.14,7.33,6.83,7.33,3.45.16,6.37-2.51,6.52-5.96,0-.15,0-.3,0-.45,0-6.64-5.54-11-12.29-11-17.3,0-24.24,13.21-24.24,29.21,0,13.9,5.38,25.89,20.27,25.89,9.66,0,17.49-6.87,17.49-18.4-.08-9.77-5.23-17.03-13.63-17.03ZM102.09,142.03c-4.12,0-3.97-5.31-3.97-11.42s.57-11.38,3.97-11.38c4.16,0,4.35,5.27,4.35,11.38.04,6.11-.84,11.42-4.35,11.42Z" style="fill:#1d428a;"/><path d="M50.09,92.09v20.62c11.53,1.72,25.31.57,35.09-13.67.42-.61.65-.19.38.34-2.71,5.54-9.16,10.65-14.74,15.04-5.35,4.2-19.7,19.24-19.51,32.49,0,1.03.04.73.95.08,4.35-3.25,12.87-3.32,18.1-.84.73.34.8.23.69-.69-.99-10.27,1.3-21.46,5.69-27.99,3.02-4.51,11.19-16.11,12.6-25.2.15-.95-.34-.8-1.53.46-9.24,9.77-25.92,9.51-36.73-.8-.65-.73-.95-.42-.99.15" style="fill:#c8102e;"/><circle cx="70.11" cy="79.73" r="19.78" style="fill:#fff;"/><polygon points="70.1 60.67 70.75 62.77 73 62.77 71.17 64.07 71.82 66.13 70.1 64.87 68.3 66.13 68.99 64.07 67.16 62.77 69.41 62.77 70.1 60.67" style="fill:#1d428a;"/><polygon points="83.23 68.34 83.92 70.4 86.17 70.4 84.34 71.74 84.99 73.8 83.23 72.54 81.48 73.8 82.16 71.74 80.33 70.4 82.58 70.4 83.23 68.34" style="fill:#1d428a;"/><polygon points="77.58 62.42 78.27 64.49 80.52 64.49 78.69 65.82 79.34 67.88 77.62 66.62 75.86 67.88 76.51 65.82 74.68 64.49 76.93 64.49 77.58 62.42" style="fill:#1d428a;"/><polygon points="85.41 75.56 86.06 77.66 88.31 77.66 86.48 78.99 87.17 81.06 85.41 79.8 83.65 81.06 84.3 78.99 82.51 77.66 84.72 77.66 85.41 75.56" style="fill:#1d428a;"/><polygon points="84.45 83.23 85.14 85.33 87.36 85.33 85.56 86.67 86.21 88.73 84.45 87.43 82.7 88.73 83.35 86.63 81.55 85.33 83.8 85.33 84.45 83.23" style="fill:#1d428a;"/><polygon points="80.22 89.34 80.86 91.44 83.12 91.44 81.32 92.78 81.97 94.84 80.25 93.58 78.46 94.84 79.15 92.78 77.31 91.44 79.57 91.44 80.22 89.34" style="fill:#1d428a;"/><polygon points="73.57 92.78 74.26 94.88 76.47 94.88 74.64 96.21 75.33 98.28 73.57 97.02 71.82 98.28 72.46 96.21 70.67 94.88 72.89 94.88 73.57 92.78" style="fill:#1d428a;"/><polygon points="56.7 67.66 56.01 69.75 53.8 69.75 55.59 71.05 54.94 73.11 56.66 71.86 58.45 73.11 57.77 71.05 59.6 69.75 57.35 69.75 56.7 67.66" style="fill:#1d428a;"/><polygon points="62.19 62.42 61.51 64.49 59.29 64.49 61.09 65.82 60.44 67.88 62.19 66.62 63.95 67.88 63.3 65.82 65.1 64.49 62.88 64.49 62.19 62.42" style="fill:#1d428a;"/><polygon points="54.1 74.64 53.45 76.74 51.2 76.74 53.03 78.04 52.38 80.14 54.1 78.84 55.86 80.14 55.21 78.04 57.04 76.74 54.83 76.74 54.1 74.64" style="fill:#1d428a;"/><polygon points="54.83 82.28 54.14 84.38 51.89 84.38 53.72 85.71 53.07 87.78 54.79 86.52 56.54 87.78 55.89 85.71 57.69 84.38 55.47 84.38 54.83 82.28" style="fill:#1d428a;"/><polygon points="59.03 88.54 58.38 90.64 56.12 90.64 57.96 91.98 57.27 94.04 59.03 92.74 60.82 94.04 60.13 91.98 61.93 90.64 59.71 90.64 59.03 88.54" style="fill:#1d428a;"/><polygon points="65.67 92.51 65.02 94.61 62.77 94.61 64.6 95.95 63.95 98.01 65.67 96.75 67.46 98.01 66.78 95.91 68.61 94.61 66.36 94.61 65.67 92.51" style="fill:#1d428a;"/></svg>