<svg id="Layer_1" data-name="Layer 1" xmlns="http://www.w3.org/2000/svg" viewBox="0 0 267.6 296.4"><title>Portland Trail Blazers logo - Brandlogos.net</title><path d="M427.9,296.4a124,124,0,0,0-15-18.2q-3.6-3.6-7.5-6.9L460,216.7H301l-61.4,61.4h0l-.1.1a123.48,123.48,0,0,0-26.3,39,122.28,122.28,0,0,0,11.3,116.2,124,124,0,0,0,15,18.2q3.6,3.6,7.5,6.9l-54.6,54.6h159L413,451.5h0a128.33,128.33,0,0,0,14.9-18,131,131,0,0,0,11.3-20.8,123.3,123.3,0,0,0,0-95.4,123.75,123.75,0,0,0-11.3-20.9" transform="translate(-192.4 -216.7)"/><path d="M405.8,285.3c-2.4-2.4-4.9-4.7-7.4-6.8l-66.7,66.7a20.31,20.31,0,0,1,9,5.3h0a20.58,20.58,0,0,1,0,29.2L216.9,503.3h14.5L347.8,386.9a30.9,30.9,0,0,0,.1-43.6l7.2-7.2a41,41,0,0,1-.1,58L245.9,503.3h14.5L362.3,401.4a51.3,51.3,0,0,0,.1-72.5l7.2-7.2a61.56,61.56,0,0,1-.1,87l-94.7,94.7h14.5L376.7,416a71.82,71.82,0,0,0,.1-101.5l7.2-7.2a82.17,82.17,0,0,1-.1,116l-80.2,80.2h14.5l72.9-72.9a92.34,92.34,0,0,0,.1-130.5l7.3-7.3a102.6,102.6,0,0,1-.1,145l-65.6,65.6h14.5L405.7,445h0a113,113,0,0,0,.1-159.7" transform="translate(-192.4 -216.7)" style="fill:#fff"/><path d="M246.7,444.7c2.4,2.4,4.9,4.7,7.4,6.8l66.7-66.7a20.31,20.31,0,0,1-9-5.3h0a20.58,20.58,0,0,1,0-29.2L435.7,226.6H421.2L304.7,343.1a30.9,30.9,0,0,0-.1,43.6l-7.2,7.2a41.13,41.13,0,0,1,.1-58L406.8,226.6H392.3l-102.1,102a51.3,51.3,0,0,0-.1,72.5l-7.2,7.2a61.56,61.56,0,0,1,.1-87l94.8-94.8H363.3l-87.6,87.6a71.82,71.82,0,0,0-.1,101.5l-7.2,7.2a82.17,82.17,0,0,1,.1-116l80.3-80.3H334.3l-73.1,73.1a92.34,92.34,0,0,0-.1,130.5l-7.3,7.3a102.6,102.6,0,0,1,.1-145l65.8-65.8H305.2l-58.6,58.6h0a113,113,0,0,0,.1,159.5" transform="translate(-192.4 -216.7)" style="fill:#cf0a2c"/></svg>